<svg width="18" height="18" viewBox="0 0 18 18" fill="none" xmlns="http://www.w3.org/2000/svg">
<path fill-rule="evenodd" clip-rule="evenodd" d="M3.15029 2.47187C3.15029 2.09908 2.84809 1.79688 2.47529 1.79688C2.1025 1.79688 1.80029 2.09908 1.80029 2.47187V15.5303C1.80029 15.9031 2.1025 16.2053 2.47529 16.2053H15.5337C15.9065 16.2053 16.2087 15.9031 16.2087 15.5303C16.2087 15.1575 15.9065 14.8553 15.5337 14.8553H3.15029V2.47187ZM12.4102 4.43452C12.2614 4.32827 12.0759 4.28689 11.8961 4.31985C11.7163 4.3528 11.5576 4.45727 11.4562 4.60937L7.89494 9.95123L5.96592 8.02221C5.70232 7.75861 5.27493 7.75861 5.01133 8.02221C4.74772 8.28581 4.74772 8.7132 5.01133 8.9768L7.52255 11.488C7.66555 11.631 7.86512 11.7024 8.06636 11.6824C8.26761 11.6625 8.44931 11.5534 8.56148 11.3852L12.1928 5.93825L15.1412 8.04429C15.4446 8.26097 15.8661 8.19071 16.0828 7.88735C16.2995 7.584 16.2292 7.16243 15.9259 6.94575L12.4102 4.43452Z" fill="#86929E"/>
</svg>
