<svg width="18" height="18" viewBox="0 0 18 18" fill="none" xmlns="http://www.w3.org/2000/svg">
<path fill-rule="evenodd" clip-rule="evenodd" d="M6.17373 2.49727C6.17373 2.12447 5.87152 1.82227 5.49873 1.82227C5.12594 1.82227 4.82373 2.12447 4.82373 2.49727V4.49766V6.49926C4.82373 6.87205 5.12594 7.17426 5.49873 7.17426C5.87152 7.17426 6.17373 6.87205 6.17373 6.49926V5.17266H10.5012C10.874 5.17266 11.1762 4.87045 11.1762 4.49766C11.1762 4.12486 10.874 3.82266 10.5012 3.82266H6.17373V2.49727ZM2.31301 4.3134C2.62722 3.99918 3.05339 3.82266 3.49776 3.82266C3.87055 3.82266 4.17276 4.12486 4.17276 4.49766C4.17276 4.87045 3.87055 5.17266 3.49776 5.17266C3.41144 5.17266 3.32864 5.20695 3.2676 5.26799C3.20656 5.32903 3.17227 5.41183 3.17227 5.49815V7.8252H14.8287V5.49815C14.8287 5.41183 14.7944 5.32903 14.7334 5.26799C14.6723 5.20695 14.5895 5.17266 14.5032 5.17266H13.1773V6.49926C13.1773 6.87205 12.8751 7.17426 12.5023 7.17426C12.1295 7.17426 11.8273 6.87205 11.8273 6.49926V4.50725L11.8272 4.49766L11.8273 4.48806V2.49727C11.8273 2.12447 12.1295 1.82227 12.5023 1.82227C12.8751 1.82227 13.1773 2.12447 13.1773 2.49727V3.82266H14.5032C14.9476 3.82266 15.3738 3.99918 15.688 4.3134C16.0022 4.62762 16.1787 5.05379 16.1787 5.49815V8.5002V14.5026C16.1787 14.947 16.0022 15.3732 15.688 15.6874C15.3738 16.0016 14.9476 16.1781 14.5032 16.1781H3.49776C3.05339 16.1781 2.62722 16.0016 2.31301 15.6874C1.99879 15.3732 1.82227 14.947 1.82227 14.5026V8.5002V5.49815C1.82227 5.05379 1.99879 4.62762 2.31301 4.3134ZM3.17227 14.5026V9.1752H14.8287V14.5026C14.8287 14.589 14.7944 14.6718 14.7334 14.7328C14.6723 14.7938 14.5895 14.8281 14.5032 14.8281H3.49776C3.41144 14.8281 3.32864 14.7938 3.2676 14.7328C3.20656 14.6718 3.17227 14.589 3.17227 14.5026Z" fill="#86929E"/>
</svg>
