<svg width="32" height="32" viewBox="0 0 32 32" fill="none" xmlns="http://www.w3.org/2000/svg">
                                        <path d="M9.65268 2.66675H7.11935C4.19935 2.66675 2.66602 4.20008 2.66602 7.10675V9.64008C2.66602 12.5467 4.19935 14.0801 7.10602 14.0801H9.63935C12.546 14.0801 14.0793 12.5467 14.0793 9.64008V7.10675C14.0927 4.20008 12.5593 2.66675 9.65268 2.66675Z" fill="#86929E"></path>
                                        <path opacity="0.4" d="M24.6658 2.66675H22.0022C18.9461 2.66675 17.334 4.81628 17.334 8.89105V12.4424C17.334 16.5172 18.9461 18.6667 22.0022 18.6667H24.6658C27.7218 18.6667 29.334 16.5172 29.334 12.4424V8.89105C29.334 4.81628 27.7218 2.66675 24.6658 2.66675Z" fill="#86929E"></path>
                                        <path d="M24.6658 21.3333H22.0022C18.9461 21.3333 17.334 22.408 17.334 24.4454V26.2211C17.334 28.2585 18.9461 29.3333 22.0022 29.3333H24.6658C27.7218 29.3333 29.334 28.2585 29.334 26.2211V24.4454C29.334 22.408 27.7218 21.3333 24.6658 21.3333Z" fill="#86929E"></path>
                                        <path opacity="0.4" d="M9.65268 17.9062H7.11935C4.19935 17.9062 2.66602 19.4396 2.66602 22.3463V24.8796C2.66602 27.7996 4.19935 29.3329 7.10602 29.3329H9.63935C12.546 29.3329 14.0793 27.7996 14.0793 24.8929V22.3596C14.0927 19.4396 12.5593 17.9062 9.65268 17.9062Z" fill="#86929E"></path>
                                    </svg>