<svg width="21" height="20" viewBox="0 0 21 20" fill="none" xmlns="http://www.w3.org/2000/svg">
<path fill-rule="evenodd" clip-rule="evenodd" d="M10.0889 2.76565C10.5685 2.3203 11.3104 2.3203 11.79 2.76565L18.1302 8.653C18.4868 8.98412 18.6895 9.44877 18.6895 9.93539V15.9993C18.6895 16.9658 17.906 17.7493 16.9395 17.7493H4.93945C3.97295 17.7493 3.18945 16.9658 3.18945 15.9993V9.93539C3.18945 9.44877 3.39207 8.98412 3.74866 8.653L10.0889 2.76565ZM10.9395 4.0228L4.76934 9.75219C4.7184 9.79949 4.68945 9.86587 4.68945 9.93539V15.9993C4.68945 16.1374 4.80138 16.2493 4.93945 16.2493H16.9395C17.0775 16.2493 17.1895 16.1374 17.1895 15.9993V9.93539C17.1895 9.86587 17.1605 9.79949 17.1096 9.75219L10.9395 4.0228Z" fill="#86929E"/>
</svg>
