<svg width="18" height="18" viewBox="0 0 18 18" fill="none" xmlns="http://www.w3.org/2000/svg">
<path fill-rule="evenodd" clip-rule="evenodd" d="M3.21198 1.79883C3.19908 1.79883 3.18619 1.7992 3.17331 1.79994C2.75808 1.82376 2.3931 2.03496 2.14698 2.34672C1.90616 2.65178 1.78932 3.03648 1.8011 3.41771V14.5801C1.7895 14.9613 1.90639 15.3458 2.14715 15.6508C2.39314 15.9624 2.75781 16.1735 3.17277 16.1977C3.18583 16.1984 3.1989 16.1988 3.21198 16.1988H9.83808C9.85098 16.1988 9.86387 16.1985 9.87675 16.1977C10.2919 16.1739 10.6569 15.9628 10.9031 15.6512C11.1441 15.3461 11.2611 14.9614 11.2495 14.5801V12.6953C11.2495 12.3225 10.9473 12.0203 10.5745 12.0203C10.2017 12.0203 9.8995 12.3225 9.8995 12.6953V14.5917C9.8995 14.6005 9.89967 14.6093 9.90002 14.6181C9.90337 14.7037 9.8757 14.7739 9.8438 14.8143C9.82879 14.8333 9.81566 14.8424 9.8084 14.8464C9.80627 14.8475 9.80453 14.8483 9.8032 14.8488H3.24732C3.246 14.8483 3.24427 14.8475 3.24217 14.8464C3.2349 14.8424 3.22177 14.8333 3.20676 14.8143C3.17487 14.7739 3.14723 14.7037 3.15058 14.6181C3.15093 14.6093 3.1511 14.6005 3.1511 14.5917V3.40597C3.1511 3.39701 3.15092 3.38805 3.15057 3.3791C3.14716 3.29365 3.17477 3.22353 3.20659 3.18322C3.22157 3.16425 3.23465 3.15515 3.24185 3.15123C3.24393 3.1501 3.24563 3.14934 3.24692 3.14883H9.8032C9.80453 3.14935 9.80627 3.15013 9.8084 3.15129C9.81566 3.15523 9.82879 3.16437 9.8438 3.18337C9.8757 3.22375 9.90337 3.29396 9.90002 3.37953C9.89967 3.38834 9.8995 3.39715 9.8995 3.40597V5.3024C9.8995 5.67519 10.2017 5.9774 10.5745 5.9774C10.9473 5.9774 11.2495 5.67519 11.2495 5.3024V3.41751C11.2611 3.03621 11.1441 2.65151 10.9031 2.34649C10.6569 2.03484 10.2919 1.82376 9.87675 1.79994C9.86387 1.7992 9.85098 1.79883 9.83808 1.79883H3.21198ZM12.903 6.36098C13.1666 6.09738 13.594 6.09738 13.8576 6.36098L16.0474 8.55084C16.1455 8.64888 16.207 8.76959 16.2322 8.8961C16.2388 8.92941 16.2428 8.96312 16.2444 8.99693C16.2449 9.00739 16.2451 9.01793 16.2451 9.02851C16.2451 9.22188 16.1638 9.39625 16.0335 9.51931L13.8576 11.6953C13.594 11.9589 13.1666 11.9589 12.903 11.6953C12.6394 11.4317 12.6394 11.0043 12.903 10.7407L13.9401 9.70352H6.37275C5.99996 9.70352 5.69775 9.40131 5.69775 9.02851C5.69775 8.65572 5.99996 8.35352 6.37275 8.35352H13.9409L12.903 7.31558C12.6394 7.05197 12.6394 6.62459 12.903 6.36098Z" fill="#86929E"/>
</svg>
