<svg width="18" height="18" viewBox="0 0 18 18" fill="none" xmlns="http://www.w3.org/2000/svg">
<path fill-rule="evenodd" clip-rule="evenodd" d="M11.7003 4.05117H9.45029V6.30117H11.7003V4.05117ZM13.0503 4.05117V6.30117H14.8503V4.50117C14.8503 4.25264 14.6488 4.05117 14.4003 4.05117H13.0503ZM11.7003 7.65117H9.45029L9.45029 9.90117H11.7003V7.65117ZM13.0503 9.90117V7.65117H14.8503V9.90117H13.0503ZM11.7003 11.2512H9.45029V13.9512H11.7003V11.2512ZM13.0503 13.9512V11.2512H14.8503V13.5012C14.8503 13.7497 14.6488 13.9512 14.4003 13.9512H13.0503ZM3.60029 4.05117H8.10029V6.30117H3.15029V4.50117C3.15029 4.25264 3.35176 4.05117 3.60029 4.05117ZM3.15029 7.65117H8.10029L8.10029 9.90117H3.15029V7.65117ZM3.15029 11.2512H8.10029V13.9512H3.60029C3.35176 13.9512 3.15029 13.7497 3.15029 13.5012V11.2512ZM3.60029 2.70117C2.60618 2.70117 1.80029 3.50706 1.80029 4.50117V13.5012C1.80029 14.4953 2.60618 15.3012 3.60029 15.3012H14.4003C15.3944 15.3012 16.2003 14.4953 16.2003 13.5012V4.50117C16.2003 3.50706 15.3944 2.70117 14.4003 2.70117H3.60029Z" fill="#86929E"/>
</svg>
