<svg width="18" height="18" viewBox="0 0 18 18" fill="none" xmlns="http://www.w3.org/2000/svg">
<path fill-rule="evenodd" clip-rule="evenodd" d="M5.57349 2.26828C5.81215 1.9819 6.23778 1.9432 6.52417 2.18186L8.99982 4.2449L11.4755 2.18186C11.7619 1.9432 12.1875 1.9819 12.4261 2.26828C12.6648 2.55467 12.6261 2.9803 12.3397 3.21896L10.8653 4.44767H15.2999C15.6727 4.44767 15.9749 4.74988 15.9749 5.12267V9.96883C15.9749 10.3416 15.6727 10.6438 15.2999 10.6438H15.0059V14.3305C15.0059 14.7666 14.8326 15.1848 14.5243 15.4931C14.2159 15.8015 13.7977 15.9747 13.3616 15.9747H4.63857C4.20249 15.9747 3.78427 15.8015 3.47592 15.4931C3.16757 15.1848 2.99434 14.7666 2.99434 14.3305V10.6438H2.6999C2.32711 10.6438 2.0249 10.3416 2.0249 9.96883V5.12267C2.0249 4.74988 2.32711 4.44767 2.6999 4.44767H7.13438L5.65992 3.21896C5.37353 2.9803 5.33484 2.55467 5.57349 2.26828ZM8.3249 5.79767H3.3749V9.29383H8.3249V5.79767ZM9.6749 9.29383V5.79767H14.6249V9.29383H9.6749ZM8.3249 10.644H4.34434V14.3305C4.34434 14.4085 4.37533 14.4834 4.43051 14.5386C4.48569 14.5937 4.56053 14.6247 4.63857 14.6247H8.3249V10.644ZM9.6749 14.6247V10.644H13.6559V14.3305C13.6559 14.4085 13.6249 14.4834 13.5697 14.5386C13.5145 14.5937 13.4397 14.6247 13.3616 14.6247H9.6749Z" fill="#86929E"/>
</svg>
