<svg width="18" height="18" viewBox="0 0 18 18" fill="none" xmlns="http://www.w3.org/2000/svg">
<path fill-rule="evenodd" clip-rule="evenodd" d="M8.86988 3.37539C8.79881 3.37539 8.72938 3.39681 8.67066 3.43686C8.61194 3.47692 8.56665 3.53373 8.54071 3.59991L8.0901 4.74803C8.03427 4.89028 7.93183 5.00937 7.79952 5.08584L6.30809 5.94778C6.17538 6.02448 6.02051 6.05373 5.86897 6.03071L4.65107 5.84571C4.58078 5.8352 4.50863 5.84607 4.44463 5.877C4.38054 5.90798 4.32729 5.95758 4.29184 6.01931L4.29035 6.02191L3.87279 6.74183C3.8371 6.80343 3.82078 6.87447 3.82608 6.94548C3.83138 7.01652 3.85801 7.0843 3.90249 7.13995L4.67215 8.10407C4.76762 8.22367 4.81962 8.37216 4.81962 8.52519V10.247C4.81962 10.3998 4.76778 10.5481 4.67259 10.6676L3.90321 11.6334C3.85888 11.689 3.83207 11.757 3.82677 11.8279C3.82149 11.8986 3.8376 11.9693 3.87301 12.0308L4.29113 12.7517C4.32667 12.8133 4.37996 12.8627 4.44405 12.8936C4.50814 12.9244 4.58004 12.9352 4.65036 12.9246L5.86897 12.7394C6.02051 12.7164 6.17538 12.7457 6.30809 12.8224L7.79952 13.6843C7.93183 13.7608 8.03427 13.8799 8.0901 14.0221L8.54062 15.17C8.56656 15.2362 8.61194 15.2932 8.67066 15.3333C8.72938 15.3733 8.79881 15.3948 8.86988 15.3948H9.70507C9.77615 15.3948 9.84558 15.3733 9.9043 15.3333C9.96302 15.2932 10.0083 15.2364 10.0342 15.1702L10.4849 14.0221C10.5407 13.8799 10.6431 13.7608 10.7754 13.6843L12.2669 12.8224C12.3996 12.7457 12.5544 12.7164 12.706 12.7394L13.9246 12.9246C13.9949 12.9352 14.0668 12.9244 14.1309 12.8936C14.195 12.8627 14.2483 12.8133 14.2838 12.7517L14.2846 12.7503L14.7022 12.0304C14.7379 11.9688 14.7542 11.8978 14.7489 11.8267C14.7436 11.7557 14.7169 11.6879 14.6725 11.6323L13.9028 10.6681C13.8073 10.5485 13.7553 10.4001 13.7553 10.247V8.52519C13.7553 8.37264 13.807 8.22459 13.9019 8.10517L14.672 7.1364C14.7163 7.08082 14.7429 7.01317 14.7482 6.94228C14.7535 6.87154 14.7374 6.80085 14.7019 6.73939L14.2838 6.0185C14.2483 5.95689 14.195 5.90744 14.1309 5.87659C14.0668 5.84575 13.9949 5.83495 13.9246 5.8456L12.706 6.03071C12.5544 6.05373 12.3996 6.02448 12.2669 5.94778L10.7754 5.08584C10.6431 5.00937 10.5407 4.89028 10.4849 4.74803L10.0343 3.60014C10.0084 3.53396 9.96302 3.47692 9.9043 3.43686C9.84558 3.39681 9.77615 3.37539 9.70508 3.37539H8.86988ZM7.90997 2.32158C8.19289 2.12861 8.52741 2.02539 8.86988 2.02539H9.70508C10.0476 2.02539 10.3821 2.12861 10.665 2.32158C10.9478 2.51451 11.166 2.78819 11.291 3.10693L11.6553 4.0351L12.7374 4.66046L13.7221 4.51087C14.0609 4.45954 14.4076 4.51154 14.7164 4.66015C15.0248 4.80862 15.2814 5.04658 15.4527 5.34299L15.4532 5.34388L15.8705 6.0634C16.0419 6.35996 16.12 6.7013 16.0944 7.04288C16.0689 7.38438 15.9411 7.71025 15.7276 7.978L15.1053 8.76079V10.0106L15.727 10.7893C15.9413 11.0574 16.0696 11.384 16.0951 11.7263C16.1207 12.0686 16.0422 12.4106 15.8701 12.7075L15.4532 13.4263L15.4527 13.4271C15.2815 13.7235 15.0249 13.9615 14.7164 14.11C14.4076 14.2586 14.0612 14.3107 13.7224 14.2593L12.7374 14.1097L11.6553 14.7351L11.2911 15.663C11.1661 15.9817 10.9478 16.2556 10.665 16.4486C10.3821 16.6415 10.0476 16.7448 9.70508 16.7448H8.86987C8.52741 16.7448 8.19289 16.6415 7.90997 16.4486C7.62711 16.2556 7.40896 15.982 7.28394 15.6632L6.91966 14.7351L5.8376 14.1097L4.85285 14.2593C4.51403 14.3106 4.16736 14.2586 3.85858 14.11C3.55005 13.9615 3.29344 13.7235 3.12219 13.427L2.70445 12.7068C2.53304 12.4102 2.455 12.0689 2.48053 11.7273C2.50604 11.3858 2.63385 11.06 2.84729 10.7923L3.46962 10.011V8.76157L2.84801 7.98289C2.63369 7.71479 2.50535 7.3882 2.47982 7.04591C2.45428 6.70362 2.53274 6.36161 2.70491 6.06467L3.1219 5.34571C3.29267 5.04894 3.54891 4.8105 3.85722 4.6615C4.16604 4.51226 4.51271 4.45971 4.85189 4.51073L4.85285 4.51087L5.8376 4.66046L6.91966 4.0351L7.28385 3.10716C7.40885 2.78832 7.62704 2.51456 7.90997 2.32158ZM7.35556 7.45419C7.86794 6.94181 8.56287 6.65396 9.28748 6.65396C9.82785 6.65396 10.3561 6.8142 10.8054 7.11441C11.2547 7.41462 11.6049 7.84132 11.8117 8.34056C12.0184 8.83979 12.0725 9.38914 11.9671 9.91912C11.8617 10.4491 11.6015 10.9359 11.2194 11.318C10.8373 11.7001 10.3505 11.9603 9.82049 12.0658C9.29051 12.1712 8.74117 12.1171 8.24193 11.9103C7.7427 11.7035 7.316 11.3533 7.01579 10.904C6.71557 10.4547 6.55534 9.92647 6.55534 9.38611C6.55534 8.6615 6.84319 7.96656 7.35556 7.45419ZM9.28748 8.00396C8.92091 8.00396 8.56936 8.14958 8.31016 8.40878C8.05096 8.66798 7.90534 9.01954 7.90534 9.38611C7.90534 9.65947 7.9864 9.92669 8.13827 10.154C8.29014 10.3813 8.506 10.5584 8.75856 10.663C9.01111 10.7677 9.28901 10.795 9.55712 10.7417C9.82523 10.6884 10.0715 10.5567 10.2648 10.3634C10.4581 10.1701 10.5897 9.92386 10.6431 9.65575C10.6964 9.38764 10.669 9.10974 10.5644 8.85718C10.4598 8.60463 10.2826 8.38877 10.0554 8.2369C9.82806 8.08502 9.56084 8.00396 9.28748 8.00396Z" fill="#86929E"/>
</svg>
