<svg width="18" height="18" viewBox="0 0 18 18" fill="none" xmlns="http://www.w3.org/2000/svg">
<path fill-rule="evenodd" clip-rule="evenodd" d="M12.3254 2.12571C12.0876 2.04028 11.8337 2.00882 11.5823 2.03361C11.3308 2.05839 11.088 2.13881 10.8715 2.26903C10.6549 2.39924 10.4701 2.576 10.3303 2.78649L10.3289 2.78852L8.25582 5.93465L3.89928 6.94068C3.6731 6.99063 3.46447 7.10047 3.29526 7.25875C3.1247 7.41828 3.00057 7.62105 2.93606 7.8455C2.87155 8.06995 2.86908 8.30769 2.92891 8.53343C2.9883 8.75755 3.1069 8.96152 3.27221 9.12399L5.95723 11.8095L2.22261 15.5441C1.959 15.8077 1.959 16.2351 2.22261 16.4987C2.48621 16.7623 2.9136 16.7623 3.1772 16.4987L6.91175 12.7641L9.59854 15.4513L9.59891 15.4517C9.7627 15.6153 9.96728 15.7321 10.1914 15.7899C10.4156 15.8477 10.6511 15.8446 10.8736 15.7807C11.0961 15.7168 11.2975 15.5945 11.4568 15.4266C11.6161 15.2587 11.7276 15.0511 11.7796 14.8256L11.7797 14.8255L12.784 10.472L15.9557 8.46034L15.9561 8.46005C16.1715 8.32321 16.3534 8.13973 16.4884 7.92317C16.6233 7.7066 16.7079 7.46249 16.7359 7.20884C16.7639 6.9552 16.7345 6.69852 16.6499 6.45776C16.5654 6.21699 16.4278 5.99829 16.2474 5.81782L16.2473 5.81771L12.9572 2.52755L12.9565 2.52688C12.7784 2.34806 12.5629 2.21104 12.3254 2.12571ZM7.39969 11.3428L10.4856 14.4292L11.5308 9.89858C11.5707 9.72564 11.6771 9.57537 11.827 9.4803L15.2322 7.32059L15.2324 7.32047C15.277 7.29208 15.3147 7.25404 15.3426 7.20916C15.3707 7.16421 15.3882 7.11354 15.394 7.0609C15.3998 7.00826 15.3937 6.95499 15.3762 6.90502C15.3586 6.85509 15.3301 6.80974 15.2927 6.7723L15.2926 6.7722L12.0013 3.48088L12.0001 3.47961C11.9631 3.44243 11.9183 3.41394 11.8689 3.39621C11.8196 3.37848 11.7669 3.37195 11.7147 3.3771C11.6625 3.38224 11.6121 3.39893 11.5672 3.42596C11.5225 3.45282 11.4843 3.48923 11.4554 3.53257L11.4549 3.53335L9.23448 6.90298C9.13909 7.04775 8.99165 7.15026 8.82272 7.18927L4.29274 8.23535L7.37856 11.3217C7.38213 11.3251 7.38568 11.3286 7.3892 11.3321C7.39274 11.3356 7.39624 11.3392 7.39969 11.3428Z" fill="#86929E"/>
</svg>
