<svg width="84" height="84" viewBox="0 0 84 84" fill="none" xmlns="http://www.w3.org/2000/svg">
<g id="icon-3">
<rect id="Rectangle Copy 2" width="84" height="84" rx="24" fill="#E9F2FF"/>
<path id="Fill 1" fill-rule="evenodd" clip-rule="evenodd" d="M42.0217 36.0799V36.0764C43.8624 36.0764 45.703 36.0696 47.5437 36.0833C47.8602 36.0854 47.9494 35.9886 47.9475 35.6768C47.9354 33.7616 47.9682 31.8461 47.9374 29.9314C47.8852 26.6849 45.2361 24.1115 42.0087 24.1325C38.7982 24.1534 36.1803 26.7814 36.1587 30.0205C36.1461 31.8758 36.167 33.7312 36.1468 35.5865C36.1429 35.9697 36.2244 36.0961 36.6343 36.0905C38.4298 36.0658 40.2258 36.0799 42.0217 36.0799ZM33.809 49.0706H33.813C33.813 51.6607 33.8202 54.2505 33.8047 56.8405C33.8023 57.2111 33.901 57.3208 34.277 57.32C39.4727 57.3098 44.6684 57.3121 49.8641 57.3231C50.2144 57.3236 50.3236 57.223 50.3229 56.8677C50.3116 51.688 50.3089 46.5082 50.3204 41.3281C50.3211 40.9161 50.2023 40.8095 49.7935 40.8106C44.6277 40.8236 39.4617 40.8223 34.2961 40.8074C33.9024 40.8063 33.7962 40.9012 33.7991 41.3009C33.8185 43.8908 33.809 46.4806 33.809 49.0706ZM41.9126 62.0371H24.6616C23.9122 62.0371 23.9103 62.0364 24.1182 61.333C25.144 57.8608 25.7097 54.3043 26.092 50.7113C26.5933 45.9998 26.7186 41.273 26.7053 36.5403C26.7042 36.1625 26.8122 36.0655 27.1827 36.0687C29.2489 36.0858 31.3155 36.0692 33.382 36.0838C33.7174 36.0863 33.8135 35.9944 33.811 35.6567C33.7962 33.8003 33.7969 31.9436 33.8086 30.0871C33.8391 25.2925 37.6275 21.6422 42.4168 21.7839C46.4605 21.9036 49.9906 25.2503 50.2673 29.284C50.4099 31.3606 50.3197 33.4448 50.3083 35.5255C50.3058 35.98 50.4235 36.0975 50.878 36.0914C52.8994 36.0649 54.9212 36.0889 56.9428 36.0716C57.3051 36.0687 57.3935 36.1832 57.3919 36.5293C57.375 39.8687 57.4488 43.2059 57.6536 46.5395C57.9448 51.2841 58.5547 55.9834 59.6487 60.6142C59.7245 60.9343 59.7641 61.2631 59.8435 61.5823C59.9254 61.9115 59.8743 62.1026 59.4775 62.0391C59.3899 62.0251 59.2981 62.0371 59.2083 62.0371H41.9126Z" fill="#4994FF"/>
<path id="Fill 4" fill-rule="evenodd" clip-rule="evenodd" d="M43.2435 51.4908C43.2435 51.1427 43.2574 50.8572 43.2394 50.574C43.2228 50.3152 43.3254 50.2382 43.5753 50.2443C44.1439 50.2583 44.7132 50.24 45.282 50.2518C45.5176 50.2569 45.5976 50.171 45.5931 49.9392C45.5819 49.3706 45.5763 48.801 45.595 48.2326C45.6046 47.9442 45.4831 47.8737 45.2239 47.8816C44.775 47.8953 44.3255 47.8852 43.8762 47.8861C43.1348 47.8877 43.248 47.9424 43.2408 47.2316C43.2363 46.7825 43.2311 46.3329 43.2471 45.8843C43.2561 45.6258 43.1929 45.5016 42.9019 45.5117C42.3484 45.531 41.7934 45.5295 41.2399 45.5121C40.9617 45.5034 40.8717 45.6071 40.8801 45.876C40.8949 46.3395 40.8862 46.8041 40.8834 47.2682C40.8789 47.948 40.9519 47.8798 40.2454 47.8845C39.7812 47.8872 39.3168 47.8933 38.8528 47.8827C38.6071 47.8771 38.5029 47.9619 38.5088 48.2196C38.5221 48.7883 38.5225 49.3576 38.5086 49.9262C38.5021 50.1903 38.6145 50.2601 38.8573 50.2518C39.2761 50.2376 39.6957 50.2477 40.1149 50.2457C40.8882 50.2421 40.8882 50.2418 40.8844 50.9933C40.8837 51.143 40.8839 51.2926 40.8839 51.4424C40.8837 52.5992 40.8837 52.6066 42.0507 52.5951C42.4337 52.5911 42.921 52.7634 43.1719 52.5112C43.4044 52.2774 43.2093 51.7973 43.2435 51.4908ZM47.9487 49.0977C47.9487 50.9085 47.9408 52.7193 47.9559 54.5301C47.9586 54.8638 47.8654 54.9601 47.5282 54.9594C43.8762 54.9486 40.2238 54.9497 36.5718 54.9617C36.2392 54.963 36.1416 54.8768 36.1427 54.5376C36.1558 50.8862 36.1567 47.2345 36.1459 43.5828C36.1449 43.2497 36.2309 43.1555 36.5691 43.1566C40.2213 43.1681 43.8735 43.1688 47.5257 43.1528C47.9068 43.1512 47.9601 43.2938 47.9579 43.6203C47.9453 45.446 47.9518 47.2719 47.9518 49.0977H47.9487Z" fill="#4994FF"/>
</g>
</svg>
