<svg width="31" height="38" viewBox="0 0 31 38" fill="none" xmlns="http://www.w3.org/2000/svg">
<rect x="16.5508" y="27.5996" width="6.105" height="13.3729" rx="3.0525" transform="rotate(-45 16.5508 27.5996)" fill="#FFB050"/>
<path d="M20.6016 26.5396C20.6016 26.6618 20.5432 26.782 20.435 26.8563C20.1729 27.0357 20.0168 27.3316 20.0168 27.6482C20.0168 27.9043 20.1163 28.1448 20.2976 28.3261C20.4473 28.4759 20.4473 28.7185 20.2976 28.8682C20.1478 29.0179 19.9052 29.0179 19.7554 28.8682C19.4293 28.5422 19.25 28.1091 19.25 27.6482C19.25 27.0785 19.5308 26.546 20.0015 26.2236C20.1762 26.104 20.4148 26.1485 20.5346 26.3233C20.5799 26.3894 20.6016 26.4649 20.6016 26.5396Z" fill="white"/>
<rect x="21.1929" y="32.4141" width="6.39571" height="0.581429" transform="rotate(-45 21.1929 32.4141)" fill="#F9FAFE"/>
<path fill-rule="evenodd" clip-rule="evenodd" d="M19.6704 15.4093C19.6446 15.5693 19.565 15.5903 19.4724 15.5906C18.9295 15.5918 17.2406 15.59 16.6977 15.5947C16.6881 15.5948 16.6783 15.5947 16.6686 15.5948C16.4416 15.5969 16.4122 15.4672 16.4122 15.2786C16.4122 15.1064 16.4119 14.9343 16.412 14.7623C16.4122 11.6792 16.41 12.0396 16.4016 8.95656C16.4012 8.7543 16.4634 8.68658 16.6613 8.69071C17.1376 8.70058 18.7601 8.69415 19.2367 8.69622C19.6379 8.69794 19.6528 8.69898 19.6563 9.10957C19.6583 9.34775 19.6595 9.46943 19.6601 9.52797C19.6597 9.53635 19.6595 9.62944 19.6606 9.99355C19.6661 11.8832 19.6755 12.6249 19.6815 14.5147C19.6824 14.8295 19.6738 15.1445 19.6704 15.4093ZM26.7707 8.69054C26.7707 8.69054 26.7651 8.47807 26.747 8.19237C26.7338 7.88164 26.7054 7.57171 26.6489 7.26339C26.6341 7.17638 26.6177 7.09477 26.5994 7.02268L26.5989 7.02337C25.9398 4.08895 24.1822 2.09727 21.8487 1.14936C19.6517 0.352045 16.7515 0.321856 14.9958 0.879149C13.5175 1.34851 12.2574 2.17533 11.2649 3.37302C10.2843 4.55602 9.62782 5.89857 9.42351 7.44039C9.33425 8.11465 9.33471 8.79144 9.3401 9.47041C9.34182 9.68862 9.34308 9.83233 9.34399 9.92588C9.34319 9.95975 9.34262 10.1107 9.34262 10.5243C9.34296 11.937 9.34342 13.3496 9.34732 14.7623C9.34789 14.9349 9.34789 15.1074 9.34858 15.2799C9.34858 15.3005 9.34766 15.3191 9.34674 15.3376V15.6217C8.30712 15.6206 7.42115 15.6199 6.9533 15.6188C4.97809 15.6136 3.00311 15.6084 1.02814 15.6059C0.605089 15.6053 0.58962 15.6223 0.617693 16.0703C0.774216 18.5703 1.74841 20.6145 3.65659 22.111C4.64488 22.8862 5.7528 23.2949 6.9533 23.3815V23.3797C7.13881 23.3935 7.32639 23.4 7.51637 23.3981C7.8686 23.3943 8.34802 23.4047 9.36966 23.4058V23.5596C9.36966 23.5676 9.37103 23.5742 9.37092 23.5825C9.35992 24.0501 9.37917 29.1098 9.37459 29.5778C9.37287 29.7614 9.37883 29.9428 9.39155 30.1224H9.3896C9.46832 31.2832 9.83946 32.3546 10.5431 33.3105C11.9016 35.1558 13.7573 36.0979 16.0268 36.2494C16.4333 36.2765 16.4489 36.2614 16.4483 35.8524C16.4459 33.9424 16.4412 32.0323 16.4367 30.1224C16.4354 29.5593 16.4347 24.4047 16.4332 23.8417C16.4323 23.4856 16.444 23.4133 16.6977 23.4001C16.7497 23.3974 17.957 23.397 18.0313 23.3973C18.613 23.4003 19.1949 23.4101 19.7765 23.4011C20.7725 23.3855 21.7266 23.1698 22.6163 22.7186C23.5643 22.2376 24.3732 21.5735 25.0277 20.7347C25.0923 20.6521 25.1543 20.5679 25.2154 20.4833L25.2156 20.4844C26.904 18.3429 26.7707 15.5949 26.7707 15.5949V8.69054Z" fill="#4994FF"/>
<path fill-rule="evenodd" clip-rule="evenodd" d="M19.5054 15.6167H26.7732V11.1471L26.7512 9.51172H19.6558C19.6558 9.51172 19.6738 15.2074 19.6692 15.4035C19.6645 15.5996 19.5054 15.6167 19.5054 15.6167Z" fill="url(#paint0_linear_4874_5807)"/>
<path fill-rule="evenodd" clip-rule="evenodd" d="M16.4015 8.95706L16.3296 0.601493C16.3296 0.601493 18.578 0.398288 20.3988 0.751962C20.3948 0.763085 19.6815 9.44178 19.6815 9.0664C19.6815 8.69103 19.5052 8.69103 19.5052 8.69103C19.5052 8.69103 17.1746 8.69103 16.7566 8.69103C16.3387 8.69103 16.4015 8.95706 16.4015 8.95706Z" fill="url(#paint1_linear_4874_5807)"/>
<defs>
<linearGradient id="paint0_linear_4874_5807" x1="19.4285" y1="9.98582" x2="19.4285" y2="15.6167" gradientUnits="userSpaceOnUse">
<stop stop-color="#4994FF"/>
<stop offset="1" stop-color="#3174D4"/>
</linearGradient>
<linearGradient id="paint1_linear_4874_5807" x1="19.6559" y1="1.30786" x2="16.3296" y2="1.30786" gradientUnits="userSpaceOnUse">
<stop stop-color="#4994FF"/>
<stop offset="1" stop-color="#3174D4"/>
</linearGradient>
</defs>
</svg>
