            <svg width="162" height="49" viewBox="0 0 162 49" fill="none" xmlns="http://www.w3.org/2000/svg">
                <path
                    d="M53.6892 38.2508C58.487 38.2508 61.868 35.6748 61.868 31.4566C61.868 26.852 58.0684 25.6606 54.4942 24.5336C51.081 23.5032 50.2116 22.7626 50.2116 21.378C50.2116 20.09 51.3064 19.124 53.174 19.124C55.4602 19.124 56.6838 20.3154 57.4888 22.022L61.224 19.8646C59.7106 16.709 56.877 14.8092 53.174 14.8092C49.31 14.8092 45.768 17.2564 45.768 21.5068C45.768 25.7894 49.1168 27.2384 52.5622 28.2366C55.911 29.2026 57.4244 29.8466 57.4244 31.521C57.4244 32.7768 56.4906 33.9038 53.818 33.9038C51.0166 33.9038 49.4388 32.5514 48.6338 30.4584L44.8342 32.6802C46.0578 36.029 49.0846 38.2508 53.6892 38.2508ZM82.3796 21.2492C80.19 21.2492 78.58 22.1186 77.5818 23.5676C76.6802 22.0864 75.199 21.2492 73.2026 21.2492C71.1418 21.2492 69.6284 22.0542 68.7268 23.4066V21.7H64.573V37.8H68.7268V28.7518C68.7268 26.3368 69.9826 25.1132 71.7536 25.1132C73.4924 25.1132 74.4584 26.2724 74.4584 28.1722V37.8H78.6122V28.7518C78.6122 26.3368 79.7714 25.1132 81.6068 25.1132C83.3456 25.1132 84.3116 26.2724 84.3116 28.1722V37.8H88.4654V27.8824C88.4654 23.8574 86.0504 21.2492 82.3796 21.2492ZM104.229 21.7V23.5998C103.07 22.1508 101.331 21.2492 98.9808 21.2492C94.6982 21.2492 91.1562 24.9522 91.1562 29.75C91.1562 34.5478 94.6982 38.2508 98.9808 38.2508C101.331 38.2508 103.07 37.3492 104.229 35.9002V37.8H108.383V21.7H104.229ZM99.7536 34.2902C97.2098 34.2902 95.31 32.4548 95.31 29.75C95.31 27.0452 97.2098 25.2098 99.7536 25.2098C102.33 25.2098 104.229 27.0452 104.229 29.75C104.229 32.4548 102.33 34.2902 99.7536 34.2902ZM116.304 24.4692V21.7H112.15V37.8H116.304V30.1042C116.304 26.7232 119.041 25.7572 121.198 26.0148V21.378C119.169 21.378 117.141 22.2796 116.304 24.4692ZM133.277 25.6928V21.7H129.638V17.192L125.484 18.4478V21.7H122.683V25.6928H125.484V32.3904C125.484 36.7374 127.449 38.444 133.277 37.8V34.0326C130.894 34.1614 129.638 34.1292 129.638 32.3904V25.6928H133.277Z"
                    fill="#4994FF" />
                <path
                    d="M146.572 36H149.284L146.463 31.1952C147.919 30.5218 148.92 29.084 148.92 27.4824C148.92 25.1528 147.027 23.26 144.679 23.26H139.583V36H142.095V31.5774H144.006L146.572 36ZM142.095 25.6078H144.679C145.626 25.6078 146.408 26.4268 146.408 27.4824C146.408 28.538 145.626 29.3752 144.679 29.3752H142.095V25.6078ZM160.463 36L156.55 29.448L160.245 23.26H157.406L155.131 27.082L152.856 23.26H150.017L153.711 29.4662L149.816 36H152.656L155.131 31.8504L157.606 36H160.463Z"
                    fill="#FFB050" />
                <rect x="21.1113" y="35.8896" width="8.085" height="17.71" rx="4.0425"
                    transform="rotate(-45 21.1113 35.8896)" fill="#FFB050" />
                <path
                    d="M26.4755 34.4847C26.4755 34.6467 26.3981 34.8058 26.2548 34.9042C25.9078 35.1418 25.701 35.5337 25.701 35.9529C25.701 36.2921 25.8329 36.6106 26.0729 36.8506C26.2711 37.049 26.2711 37.3703 26.0729 37.5686C25.8745 37.7669 25.5532 37.7669 25.3549 37.5686C24.923 37.1369 24.6855 36.5633 24.6855 35.9529C24.6855 35.1985 25.0574 34.4932 25.6807 34.0663C25.9122 33.9079 26.2281 33.9668 26.3868 34.1983C26.4467 34.2859 26.4755 34.3858 26.4755 34.4847Z"
                    fill="white" />
                <rect x="27.2598" y="42.2646" width="8.47" height="0.77" transform="rotate(-45 27.2598 42.2646)"
                    fill="#F9FAFE" />
                <path fill-rule="evenodd" clip-rule="evenodd"
                    d="M25.2436 19.7449C25.2094 19.9568 25.104 19.9846 24.9813 19.9849C24.2624 19.9866 22.0258 19.9841 21.3068 19.9904C21.294 19.9905 21.2811 19.9904 21.2682 19.9905C20.9676 19.9933 20.9286 19.8215 20.9286 19.5717C20.9286 19.3437 20.9283 19.1158 20.9285 18.888C20.9286 14.805 20.9257 15.2823 20.9147 11.1993C20.9141 10.9315 20.9965 10.8418 21.2585 10.8472C21.8893 10.8603 24.0381 10.8518 24.6692 10.8545C25.2006 10.8568 25.2203 10.8582 25.2249 11.4019C25.2276 11.7174 25.2291 11.8785 25.2299 11.956C25.2294 11.9671 25.2291 12.0904 25.2307 12.5726C25.2379 15.0751 25.2504 16.0574 25.2583 18.5601C25.2595 18.977 25.2481 19.3942 25.2436 19.7449ZM34.6467 10.8469C34.6467 10.8469 34.6393 10.5656 34.6153 10.1872C34.5979 9.77568 34.5602 9.36524 34.4854 8.95692C34.4658 8.84169 34.4441 8.73361 34.4199 8.63815L34.4193 8.63906C33.5464 4.75293 31.2188 2.11531 28.1284 0.859961C25.2188 -0.19594 21.3781 -0.23592 19.0529 0.502116C17.0952 1.12371 15.4264 2.21868 14.112 3.80481C12.8133 5.37148 11.944 7.14946 11.6734 9.19133C11.5552 10.0843 11.5558 10.9806 11.563 11.8797C11.5652 12.1687 11.5669 12.359 11.5681 12.4829C11.5671 12.5278 11.5663 12.7277 11.5663 13.2754C11.5667 15.1462 11.5674 17.0171 11.5725 18.888C11.5733 19.1164 11.5733 19.3449 11.5742 19.5734C11.5742 19.6006 11.573 19.6252 11.5718 19.6499V20.0261C10.195 20.0246 9.02165 20.0237 8.40206 20.0221C5.78625 20.0153 3.17073 20.0085 0.555221 20.0051C-0.00502926 20.0044 -0.0255151 20.0269 0.0116629 20.6202C0.218949 23.9309 1.5091 26.6382 4.03615 28.62C5.34497 29.6466 6.81221 30.1879 8.40206 30.3025V30.3001C8.64774 30.3185 8.89615 30.327 9.14775 30.3245C9.61422 30.3195 10.2491 30.3332 11.6021 30.3347V30.5384C11.6021 30.5489 11.6039 30.5577 11.6038 30.5687C11.5892 31.188 11.6147 37.8887 11.6086 38.5085C11.6064 38.7515 11.6142 38.9919 11.6311 39.2296H11.6285C11.7328 40.767 12.2243 42.1859 13.1561 43.4517C14.9553 45.8955 17.4128 47.1431 20.4183 47.3438C20.9567 47.3796 20.9773 47.3597 20.9766 46.8181C20.9734 44.2886 20.9672 41.759 20.9611 39.2296C20.9594 38.484 20.9585 31.6576 20.9566 30.9119C20.9553 30.4404 20.9708 30.3446 21.3068 30.3271C21.3757 30.3236 22.9745 30.323 23.073 30.3235C23.8432 30.3274 24.614 30.3404 25.3841 30.3285C26.7032 30.3078 27.9667 30.0222 29.145 29.4246C30.4004 28.7877 31.4717 27.9081 32.3385 26.7973C32.4239 26.6879 32.506 26.5765 32.5871 26.4644L32.5872 26.4658C34.8232 23.6298 34.6467 19.9905 34.6467 19.9905V10.8469Z"
                    fill="#4994FF" />
                <path fill-rule="evenodd" clip-rule="evenodd"
                    d="M25.0254 20.0201H34.6504V14.1009L34.6212 11.9351H25.2246C25.2246 11.9351 25.2484 19.478 25.2423 19.7377C25.2361 19.9974 25.0254 20.0201 25.0254 20.0201Z"
                    fill="url(#paint0_linear_1032_7021)" />
                <path fill-rule="evenodd" clip-rule="evenodd"
                    d="M20.9156 11.1993L20.8203 0.133842C20.8203 0.133842 23.798 -0.135267 26.2092 0.333112C26.204 0.347842 25.2593 11.8412 25.2593 11.3441C25.2593 10.847 25.0259 10.847 25.0259 10.847C25.0259 10.847 21.9393 10.847 21.3859 10.847C20.8324 10.847 20.9156 11.1993 20.9156 11.1993Z"
                    fill="url(#paint1_linear_1032_7021)" />
                <defs>
                    <linearGradient id="paint0_linear_1032_7021" x1="24.9236" y1="12.5629" x2="24.9236"
                        y2="20.0201" gradientUnits="userSpaceOnUse">
                        <stop stop-color="#4994FF" />
                        <stop offset="1" stop-color="#3174D4" />
                    </linearGradient>
                    <linearGradient id="paint1_linear_1032_7021" x1="25.2254" y1="1.0693" x2="20.8203"
                        y2="1.0693" gradientUnits="userSpaceOnUse">
                        <stop stop-color="#4994FF" />
                        <stop offset="1" stop-color="#3174D4" />
                    </linearGradient>
                </defs>
            </svg>