   <svg width="24" height="24" viewBox="0 0 24 24" fill="none" xmlns="http://www.w3.org/2000/svg">
        <path fill-rule="evenodd" clip-rule="evenodd" d="M4.28227 2.40002C4.26507 2.40002 4.24788 2.40052 4.23072 2.4015C3.67707 2.43327 3.19044 2.71486 2.86228 3.13055C2.54117 3.5373 2.3854 4.05022 2.4011 4.55854V19.4417C2.38564 19.9499 2.54149 20.4626 2.8625 20.8693C3.19049 21.2847 3.67671 21.5663 4.23 21.5985C4.24741 21.5995 4.26484 21.6 4.28227 21.6H13.1171C13.1343 21.6 13.1515 21.5995 13.1686 21.5985C13.7222 21.5668 14.2088 21.2853 14.5371 20.8698C14.8584 20.4631 15.0144 19.9502 14.999 19.4418V16.9286C14.999 16.4315 14.596 16.0286 14.099 16.0286C13.6019 16.0286 13.199 16.4315 13.199 16.9286V19.4572C13.199 19.4689 13.1992 19.4807 13.1997 19.4924C13.2041 19.6065 13.1672 19.7001 13.1247 19.754C13.1047 19.7793 13.0872 19.7915 13.0775 19.7967C13.0765 19.7973 13.0756 19.7977 13.0748 19.7982C13.0731 19.799 13.0717 19.7996 13.0706 19.8H4.32939C4.32763 19.7993 4.32533 19.7983 4.32252 19.7968C4.31283 19.7915 4.29532 19.7793 4.27531 19.7539C4.23279 19.7001 4.19594 19.6065 4.20041 19.4925C4.20087 19.4807 4.2011 19.4689 4.2011 19.4572V4.54288C4.2011 4.53093 4.20087 4.51899 4.20039 4.50705C4.19585 4.39313 4.23266 4.29963 4.27509 4.24588C4.29506 4.22059 4.3125 4.20846 4.3221 4.20323C4.32487 4.20172 4.32714 4.20071 4.32887 4.20002H13.0706C13.0723 4.20072 13.0747 4.20175 13.0775 4.2033C13.0872 4.20856 13.1047 4.22075 13.1247 4.24608C13.1672 4.29992 13.2041 4.39353 13.1997 4.50762C13.1992 4.51937 13.199 4.53112 13.199 4.54288V7.07145C13.199 7.56851 13.6019 7.97145 14.099 7.97145C14.596 7.97145 14.999 7.56851 14.999 7.07145V4.55827C15.0144 4.04987 14.8584 3.53694 14.5371 3.13025C14.2088 2.7147 13.7222 2.43326 13.1686 2.4015C13.1515 2.40052 13.1343 2.40002 13.1171 2.40002H4.28227ZM17.2038 8.48363C17.5552 8.13216 18.1251 8.13216 18.4766 8.48363L21.3944 11.4015C21.401 11.408 21.4075 11.4147 21.4139 11.4214C21.4889 11.5006 21.5467 11.5901 21.5874 11.6852C21.6341 11.794 21.66 11.9139 21.66 12.0398C21.66 12.2733 21.5711 12.486 21.4253 12.6459C21.4149 12.6574 21.4042 12.6685 21.3932 12.6794L18.4766 15.596C18.1251 15.9475 17.5552 15.9475 17.2038 15.596C16.8523 15.2446 16.8523 14.6747 17.2038 14.3232L18.5872 12.9398H8.4968C7.99974 12.9398 7.5968 12.5369 7.5968 12.0398C7.5968 11.5428 7.99974 11.1398 8.4968 11.1398H18.5872L17.2038 9.75642C16.8523 9.40495 16.8523 8.8351 17.2038 8.48363Z" fill="#676879"/>
        </svg>