<svg width="4" height="14" viewBox="0 0 4 14" fill="none" xmlns="http://www.w3.org/2000/svg">
<path d="M1.99998 7.66667C2.36817 7.66667 2.66665 7.36819 2.66665 7C2.66665 6.63181 2.36817 6.33334 1.99998 6.33334C1.63179 6.33334 1.33331 6.63181 1.33331 7C1.33331 7.36819 1.63179 7.66667 1.99998 7.66667Z" stroke="#86929E" stroke-width="1.5" stroke-linecap="round" stroke-linejoin="round"/>
<path d="M1.99998 3.00001C2.36817 3.00001 2.66665 2.70153 2.66665 2.33334C2.66665 1.96515 2.36817 1.66667 1.99998 1.66667C1.63179 1.66667 1.33331 1.96515 1.33331 2.33334C1.33331 2.70153 1.63179 3.00001 1.99998 3.00001Z" stroke="#86929E" stroke-width="1.5" stroke-linecap="round" stroke-linejoin="round"/>
<path d="M1.99998 12.3333C2.36817 12.3333 2.66665 12.0349 2.66665 11.6667C2.66665 11.2985 2.36817 11 1.99998 11C1.63179 11 1.33331 11.2985 1.33331 11.6667C1.33331 12.0349 1.63179 12.3333 1.99998 12.3333Z" stroke="#86929E" stroke-width="1.5" stroke-linecap="round" stroke-linejoin="round"/>
</svg>
