    <svg width="24" height="24" viewBox="0 0 24 24" fill="none" xmlns="http://www.w3.org/2000/svg">
        <path fill-rule="evenodd" clip-rule="evenodd" d="M4.20002 3.29413C4.20002 2.79708 3.79708 2.39413 3.30002 2.39413C2.80297 2.39413 2.40002 2.79708 2.40002 3.29413V20.7053C2.40002 21.2024 2.80297 21.6053 3.30002 21.6053H20.7112C21.2083 21.6053 21.6112 21.2024 21.6112 20.7053C21.6112 20.2083 21.2083 19.8053 20.7112 19.8053H4.20002V3.29413ZM16.5465 5.91C16.3482 5.76834 16.1009 5.71317 15.8611 5.75711C15.6214 5.80105 15.4097 5.94034 15.2745 6.14313L10.5262 13.2656L7.95419 10.6936C7.60272 10.3421 7.03287 10.3421 6.6814 10.6936C6.32993 11.0451 6.32993 11.6149 6.6814 11.9664L10.0297 15.3147C10.2204 15.5054 10.4865 15.6005 10.7548 15.5739C11.0231 15.5473 11.2654 15.4019 11.4149 15.1775L16.2566 7.91499L20.1879 10.723C20.5924 11.0119 21.1545 10.9183 21.4434 10.5138C21.7323 10.1093 21.6386 9.54722 21.2341 9.25831L16.5465 5.91Z" fill="#676879"/>
        </svg>