    <svg width="24" height="24" viewBox="0 0 24 24" fill="none" xmlns="http://www.w3.org/2000/svg">
        <path fill-rule="evenodd" clip-rule="evenodd" d="M15.6001 5.40001H12.6001V8.4H15.6001V5.40001ZM17.4001 5.40001V8.4H19.8V6.00001C19.8 5.66863 19.5314 5.40001 19.2 5.40001H17.4001ZM15.6001 10.2H12.6001L12.6001 13.2H15.6001L15.6001 10.2ZM17.4001 13.2L17.4001 10.2H19.8V13.2H17.4001ZM15.6001 15H12.6001V18.6H15.6001V15ZM17.4001 18.6V15H19.8V18C19.8 18.3314 19.5314 18.6 19.2 18.6H17.4001ZM4.80002 5.40001H10.8001V8.4H4.20002V6.00001C4.20002 5.66864 4.46865 5.40001 4.80002 5.40001ZM4.20002 10.2H10.8001L10.8001 13.2H4.20002V10.2ZM4.20002 15H10.8001V18.6H4.80002C4.46865 18.6 4.20002 18.3314 4.20002 18V15ZM4.80002 3.60001C3.47454 3.60001 2.40002 4.67452 2.40002 6.00001V18C2.40002 19.3255 3.47454 20.4 4.80002 20.4H19.2C20.5255 20.4 21.6 19.3255 21.6 18V6.00001C21.6 4.67452 20.5255 3.60001 19.2 3.60001H4.80002Z" fill="#676879"/>
        </svg>