    <svg width="24" height="24" viewBox="0 0 24 24" fill="none" xmlns="http://www.w3.org/2000/svg">
        <path fill-rule="evenodd" clip-rule="evenodd" d="M7.4314 3.02384C7.74961 2.64199 8.31712 2.5904 8.69897 2.90861L11.9998 5.65933L15.3007 2.90861C15.6826 2.5904 16.2501 2.64199 16.5683 3.02384C16.8865 3.40569 16.8349 3.9732 16.453 4.2914L14.4858 5.93077H20.4C20.897 5.93077 21.3 6.33372 21.3 6.83077V13.2923C21.3 13.7894 20.897 14.1923 20.4 14.1923H20.0079V19.1077C20.0079 19.6892 19.7769 20.2468 19.3658 20.6579C18.9547 21.0691 18.397 21.3 17.8156 21.3H6.18484C5.6034 21.3 5.04578 21.0691 4.63464 20.6579C4.2235 20.2468 3.99253 19.6892 3.99253 19.1077V14.1923H3.59995C3.10289 14.1923 2.69995 13.7894 2.69995 13.2923V6.83077C2.69995 6.33372 3.10289 5.93077 3.59995 5.93077H9.51388L7.54664 4.2914C7.16479 3.9732 7.1132 3.40569 7.4314 3.02384ZM11.1 7.73077H4.49995V12.3923H11.1V7.73077ZM12.9 12.3923V7.73077H19.5V12.3923H12.9ZM11.1 14.1923H5.79253V19.1077C5.79253 19.2118 5.83386 19.3116 5.90743 19.3851C5.98101 19.4587 6.08079 19.5 6.18484 19.5H11.1V14.1923ZM12.9 19.5V14.1923H18.2079V19.1077C18.2079 19.2118 18.1666 19.3116 18.093 19.3851C18.0194 19.4587 17.9197 19.5 17.8156 19.5H12.9Z" fill="#676879"/>
        </svg>