  <svg width="24" height="24" viewBox="0 0 24 24" fill="none" xmlns="http://www.w3.org/2000/svg">
        <path fill-rule="evenodd" clip-rule="evenodd" d="M16.4339 2.83377C16.1168 2.71987 15.7784 2.67792 15.4431 2.71097C15.1078 2.74402 14.7841 2.85124 14.4954 3.02486C14.2067 3.19848 13.9602 3.43416 13.7738 3.71481L13.772 3.71752L11.0078 7.91236L5.19913 9.25373C4.89755 9.32033 4.61938 9.46679 4.39376 9.67782C4.16635 9.89053 4.00084 10.1609 3.91483 10.4602C3.82882 10.7594 3.82553 11.0764 3.90529 11.3774C3.98449 11.6762 4.1426 11.9482 4.36302 12.1648L7.94293 15.7453L2.96356 20.7247C2.61208 21.0761 2.61208 21.646 2.96356 21.9975C3.31503 22.3489 3.88488 22.3489 4.23635 21.9975L9.21562 17.0182L12.7981 20.6013L12.7986 20.6018C13.017 20.8199 13.2898 20.9756 13.5887 21.0527C13.8875 21.1298 14.2016 21.1256 14.4982 21.0404C14.7949 20.9552 15.0634 20.7922 15.2758 20.5683C15.4882 20.3444 15.6368 20.0677 15.7063 19.7669L15.7063 19.7668L17.0454 13.9621L21.2743 11.2799L21.2749 11.2796C21.5621 11.0971 21.8046 10.8525 21.9846 10.5637C22.1645 10.275 22.2773 9.94947 22.3146 9.61129C22.3519 9.2731 22.3127 8.93085 22.2 8.60983C22.0873 8.28881 21.9039 7.99722 21.6633 7.75658L21.6632 7.75644L17.2763 3.36955L17.2755 3.36874C17.0381 3.13028 16.7506 2.94755 16.4339 2.83377ZM9.87121 15.1281L13.9809 19.2385L15.3745 13.1976C15.4277 12.967 15.5696 12.7666 15.7695 12.6399L20.3097 9.76027C20.3693 9.72241 20.4196 9.67163 20.4569 9.6117C20.4943 9.55177 20.5177 9.48422 20.5254 9.41403C20.5332 9.34384 20.525 9.27281 20.5017 9.20618C20.4783 9.13955 20.4402 9.07903 20.3903 9.02909L16.0018 4.64066L16.0002 4.63897C15.9509 4.5894 15.8911 4.55142 15.8253 4.52777C15.7595 4.50413 15.6893 4.49543 15.6197 4.50229C15.5501 4.50915 15.4829 4.5314 15.423 4.56743C15.3634 4.60326 15.3125 4.65182 15.2739 4.70962L15.2732 4.71063L12.3127 9.20347C12.1855 9.39649 11.9889 9.53317 11.7637 9.58519L5.72374 10.98L9.83302 15.0899C9.83954 15.096 9.84598 15.1023 9.85235 15.1087C9.85875 15.1151 9.86504 15.1216 9.87121 15.1281Z" fill="#676879"/>
        </svg>