    <svg width="24" height="24" viewBox="0 0 24 24" fill="none" xmlns="http://www.w3.org/2000/svg">
        <path fill-rule="evenodd" clip-rule="evenodd" d="M11.8264 4.50001C11.7317 4.50001 11.6391 4.52858 11.5608 4.58198C11.4825 4.63538 11.4221 4.71114 11.3875 4.79937L10.7867 6.33019C10.7123 6.51986 10.5757 6.67866 10.3993 6.78061L8.41071 7.92987C8.23376 8.03213 8.02727 8.07113 7.82521 8.04043L6.20135 7.79377C6.10763 7.77976 6.01142 7.79426 5.9261 7.83549C5.84064 7.87679 5.76963 7.94293 5.72238 8.02524L5.72039 8.02871L5.16365 8.98859C5.11605 9.07074 5.09429 9.16545 5.10136 9.26013C5.10842 9.35485 5.14394 9.44523 5.20325 9.51942L6.22945 10.8049C6.35675 10.9644 6.42608 11.1624 6.42608 11.3664V13.6622C6.42608 13.8659 6.35697 14.0636 6.23003 14.2229L5.2042 15.5107C5.1451 15.5848 5.10935 15.6755 5.10228 15.77C5.09523 15.8643 5.11672 15.9586 5.16393 16.0405L5.72143 17.0017C5.76881 17.0838 5.83987 17.1498 5.92532 17.1909C6.01077 17.232 6.10663 17.2464 6.2004 17.2322L7.82521 16.9854C8.02727 16.9547 8.23376 16.9937 8.41071 17.096L10.3993 18.2452C10.5757 18.3472 10.7123 18.506 10.7867 18.6957L11.3874 20.2262C11.422 20.3144 11.4825 20.3905 11.5608 20.4439C11.6391 20.4973 11.7317 20.5258 11.8264 20.5258H12.94C13.0348 20.5258 13.1274 20.4973 13.2057 20.4439C13.2839 20.3905 13.3443 20.3147 13.3789 20.2265L13.9797 18.6957C14.0542 18.506 14.1908 18.3472 14.3672 18.2452L16.3557 17.096C16.5327 16.9937 16.7392 16.9547 16.9412 16.9854L18.5661 17.2322C18.6598 17.2464 18.7557 17.232 18.8411 17.1909C18.9266 17.1498 18.9976 17.0838 19.045 17.0017L19.0461 16.9999L19.6028 16.04C19.6504 15.9578 19.6722 15.8632 19.6651 15.7685C19.658 15.6737 19.6225 15.5834 19.5632 15.5092L18.537 14.2237C18.4097 14.0642 18.3404 13.8662 18.3404 13.6622V11.3664C18.3404 11.163 18.4093 10.9656 18.5358 10.8064L19.5626 9.51469C19.6217 9.44059 19.6571 9.35039 19.6642 9.25586C19.6712 9.16154 19.6497 9.06729 19.6025 8.98535L19.045 8.02416C18.9976 7.94201 18.9266 7.87607 18.8411 7.83495C18.7557 7.79382 18.6598 7.77942 18.5661 7.79363L16.9412 8.04043C16.7392 8.07113 16.5327 8.03213 16.3557 7.92987L14.3672 6.78061C14.1908 6.67866 14.0542 6.51986 13.9797 6.33019L13.379 4.79968C13.3444 4.71144 13.2839 4.63538 13.2057 4.58198C13.1274 4.52858 13.0348 4.50001 12.94 4.50001H11.8264ZM10.5465 3.09494C10.9238 2.83764 11.3698 2.70002 11.8264 2.70001H12.94C13.3967 2.70002 13.8427 2.83764 14.2199 3.09494C14.597 3.35217 14.8879 3.71707 15.0546 4.14206L15.5403 5.37963L16.9831 6.21343L18.2961 6.01399C18.7478 5.94554 19.2101 6.01487 19.6218 6.21303C20.0331 6.41099 20.3752 6.72826 20.6035 7.12348L20.6042 7.12467L21.1606 8.08402C21.3892 8.47943 21.4932 8.93456 21.4592 9.39C21.4251 9.84533 21.2547 10.2798 20.97 10.6368L20.1404 11.6805V13.347L20.9692 14.3853C21.2549 14.7427 21.4261 15.1782 21.4601 15.6346C21.4942 16.0909 21.3895 16.547 21.16 16.9429L20.6042 17.9012L20.6036 17.9022C20.3752 18.2975 20.0331 18.6148 19.6218 18.8128C19.21 19.011 18.7481 19.0804 18.2964 19.0119L16.9831 18.8124L15.5403 19.6462L15.0547 20.8835C14.888 21.3085 14.597 21.6737 14.2199 21.9309C13.8427 22.1882 13.3967 22.3258 12.94 22.3258H11.8264C11.3698 22.3258 10.9238 22.1882 10.5465 21.9309C10.1694 21.6737 9.87853 21.3088 9.71184 20.8838L9.22613 19.6462L7.78338 18.8124L6.47038 19.0119C6.01863 19.0803 5.5564 19.011 5.14469 18.8128C4.73332 18.6148 4.39117 18.2975 4.16284 17.9022L3.60586 16.9418C3.3773 16.5464 3.27325 16.0913 3.30729 15.6358C3.34131 15.1806 3.51173 14.7462 3.7963 14.3892L4.62608 13.3475V11.6816L3.79726 10.6433C3.5115 10.2859 3.34039 9.85042 3.30634 9.39404C3.2723 8.93766 3.37691 8.48163 3.60646 8.08572L4.16246 7.12711C4.39014 6.73141 4.7318 6.41349 5.14288 6.21482C5.55464 6.01584 6.01687 5.94577 6.4691 6.0138L6.47038 6.01399L7.78338 6.21343L9.22613 5.37963L9.71172 4.14237C9.87839 3.71725 10.1693 3.35223 10.5465 3.09494ZM9.80734 9.93841C10.4905 9.25524 11.4171 8.87144 12.3832 8.87144C13.1037 8.87144 13.808 9.08509 14.4071 9.48537C15.0062 9.88566 15.4731 10.4546 15.7488 11.1202C16.0245 11.7859 16.0966 12.5183 15.9561 13.225C15.8155 13.9316 15.4686 14.5807 14.9591 15.0902C14.4497 15.5997 13.8006 15.9466 13.0939 16.0872C12.3873 16.2277 11.6548 16.1556 10.9892 15.8799C10.3235 15.6041 9.75458 15.1372 9.3543 14.5382C8.95402 13.9391 8.74037 13.2348 8.74037 12.5143C8.74037 11.5482 9.12417 10.6216 9.80734 9.93841ZM12.3832 10.6714C11.8945 10.6714 11.4257 10.8656 11.0801 11.2112C10.7345 11.5568 10.5404 12.0255 10.5404 12.5143C10.5404 12.8788 10.6485 13.2351 10.8509 13.5381C11.0534 13.8412 11.3413 14.0774 11.678 14.2169C12.0147 14.3564 12.3853 14.3929 12.7427 14.3217C13.1002 14.2506 13.4286 14.0751 13.6863 13.8174C13.9441 13.5597 14.1196 13.2313 14.1907 12.8738C14.2618 12.5163 14.2253 12.1458 14.0858 11.8091C13.9463 11.4723 13.7101 11.1845 13.4071 10.982C13.104 10.7795 12.7477 10.6714 12.3832 10.6714Z" fill="#676879"/>
        </svg>
