<svg width="13" height="31" viewBox="0 0 13 31" fill="none" xmlns="http://www.w3.org/2000/svg">
<g opacity="0.296488">
<path fill-rule="evenodd" clip-rule="evenodd" d="M6.5 18.7474C6.84889 18.7093 7.14354 18.9773 7.15186 19.1161C7.15776 19.2136 7.15811 19.3114 7.15811 19.409C7.15845 21.3339 7.15834 23.2587 7.15845 25.1835C7.15845 26.3951 7.15151 27.6068 7.161 28.8183C7.16863 29.8031 7.40002 30.5033 8.31184 30.5C9.20944 30.4967 9.44199 29.7887 9.44338 28.8343C9.44731 26.0399 9.44477 23.2454 9.44488 20.451C9.44488 17.6566 9.44488 14.1575 9.445 11.3631C9.445 11.2751 9.44361 11.1871 9.44743 11.0993C9.4539 10.95 9.58619 10.7514 9.88882 10.6775C10.4209 10.5476 10.737 10.9353 10.7583 11.0903C10.7702 11.1767 10.7644 11.2659 10.7644 11.3537C10.7648 12.8096 10.7646 14.97 10.7648 16.4259C10.7648 17.2661 10.7597 18.1064 10.7678 18.9467C10.7728 19.4681 10.9326 19.9322 11.4739 19.9963C12.1779 20.0798 12.4973 19.6075 12.4979 18.8295C12.5005 15.2913 12.501 12.4578 12.4974 10.3289C12.4947 8.73 11.3823 7.60852 9.7999 7.60547C8.71751 7.60323 7.635 7.60241 6.55262 7.60241V7.60229C6.53504 7.60229 6.51758 7.60241 6.5 7.60241C6.48242 7.60241 6.46496 7.60229 6.44738 7.60229V7.60241C5.365 7.60241 4.28249 7.60323 3.2001 7.60547C1.61769 7.60852 0.505348 8.73 0.502573 10.3289C0.498988 12.4578 0.499451 15.2913 0.50211 18.8295C0.502689 19.6075 0.822086 20.0798 1.5261 19.9963C2.06741 19.9322 2.22723 19.4681 2.2322 18.9467C2.24029 18.1064 2.2352 17.2661 2.2352 16.4259C2.23544 14.97 2.2352 12.8096 2.23555 11.3537C2.23555 11.2659 2.22977 11.1767 2.24168 11.0903C2.26296 10.9353 2.57912 10.5476 3.11118 10.6775C3.41381 10.7514 3.5461 10.95 3.55257 11.0993C3.55639 11.1871 3.555 11.2751 3.555 11.3631C3.55512 14.1575 3.55512 17.6566 3.55512 20.451C3.55523 23.2454 3.55269 26.0399 3.55662 28.8343C3.55801 29.7887 3.79056 30.4967 4.68816 30.5C5.59998 30.5033 5.83137 29.8031 5.839 28.8183C5.84849 27.6068 5.84155 26.3951 5.84155 25.1835C5.84166 23.2587 5.84155 21.3339 5.84189 19.409C5.84189 19.3114 5.84224 19.2136 5.84814 19.1161C5.85646 18.9773 6.15111 18.7093 6.5 18.7474Z" fill="#969696"/>
<path fill-rule="evenodd" clip-rule="evenodd" d="M6.44257 6.42696C8.05273 6.42849 9.36386 5.1015 9.36582 3.46824C9.36767 1.83686 8.05562 0.501293 6.44973 0.500001C4.8435 0.498592 3.52948 1.8297 3.52613 3.46166C3.52278 5.09363 4.83274 6.42544 6.44257 6.42696Z" fill="#969696"/>
</g>
</svg>
