<svg width="13" height="31" viewBox="0 0 13 31" fill="none" xmlns="http://www.w3.org/2000/svg">
<g opacity="0.296488">
<path fill-rule="evenodd" clip-rule="evenodd" d="M9.92978 20.4378C9.92967 23.2304 9.93219 26.023 9.92829 28.8156C9.92703 29.7692 9.23558 30.4967 8.34571 30.5C7.44185 30.5033 6.75636 29.7838 6.74879 28.7995C6.73939 27.5889 6.74627 26.378 6.74627 25.1672C6.74627 23.2437 6.74639 21.3201 6.74604 19.3965C6.74604 19.299 6.7457 19.2013 6.73985 19.1038C6.7308 18.9514 6.63863 18.8688 6.49936 18.8682C6.35974 18.8676 6.26758 18.9505 6.2576 19.1026C6.25118 19.1998 6.25095 19.2976 6.25095 19.3952C6.25061 22.4905 6.25153 25.5857 6.25015 28.6811C6.24969 29.5453 5.83863 30.1639 5.12402 30.3885C4.13729 30.6988 3.12464 29.9734 3.07226 28.9176C3.06687 28.8104 3.06962 28.7028 3.06962 28.5954C3.0695 23.0786 3.06973 17.5617 3.06824 12.0449C3.06824 11.839 3.13083 11.5534 2.82305 11.5495C2.51848 11.5455 2.56444 11.8263 2.56433 12.0365C2.56307 14.3115 2.56582 16.5867 2.56204 18.8617C2.56078 19.6155 1.99209 20.1062 1.3089 19.9576C0.825732 19.8526 0.503621 19.4235 0.50213 18.8607C0.498348 17.5035 0.500755 16.1463 0.500755 14.789C0.500755 13.3146 0.499035 11.8401 0.501213 10.3658C0.503735 8.72377 1.59169 7.60291 3.19078 7.60045C5.40154 7.59704 7.61242 7.59634 9.82318 7.60068C11.3918 7.60385 12.4945 8.72459 12.4972 10.3224C12.5019 13.1541 12.4998 15.9857 12.4976 18.8174C12.497 19.5949 11.9394 20.1011 11.2503 19.9603C10.7763 19.8634 10.4437 19.4556 10.4387 18.9345C10.4308 18.0948 10.4359 17.255 10.4358 16.4154C10.4356 14.9605 10.4358 13.5055 10.4355 12.0507C10.4355 11.9629 10.4411 11.8738 10.4293 11.7874C10.4082 11.6325 10.3184 11.532 10.1612 11.5439C10.0226 11.5545 9.93884 11.6472 9.93231 11.7965C9.92852 11.8842 9.9299 11.9722 9.9299 12.0601C9.92978 14.8527 9.9299 17.6452 9.92978 20.4378Z" fill="#969696"/>
<path fill-rule="evenodd" clip-rule="evenodd" d="M6.49523 6.42304C4.89946 6.42152 3.60104 5.09059 3.60425 3.4597C3.60758 1.82882 4.91012 0.498593 6.50234 0.500001C8.09421 0.501292 9.3948 1.83597 9.39297 3.46627C9.39102 5.09845 8.09134 6.42457 6.49523 6.42304Z" fill="#969696"/>
</g>
</svg>
