<svg width="17" height="31" viewBox="0 0 17 31" fill="none" xmlns="http://www.w3.org/2000/svg">
<path fill-rule="evenodd" clip-rule="evenodd" d="M13.3815 12.43C13.5362 14.0161 13.5386 15.6062 13.5134 17.1966C13.4566 20.8125 13.1558 24.3991 12.2651 27.9114C12.121 28.4795 11.9758 29.0512 11.7123 29.577C11.3713 30.2577 10.8407 30.5807 10.2604 30.4799C9.66622 30.3767 9.28173 29.9203 9.19376 29.1791C9.02073 27.7225 8.98639 26.2556 8.91551 24.7919C8.85735 23.5905 8.82096 22.3879 8.77536 21.186C8.76879 21.0107 8.79056 20.795 8.55616 20.7817C8.2877 20.7665 8.30918 21.0026 8.30042 21.1867C8.21054 23.0763 8.12724 24.9664 8.03225 26.8557C7.99148 27.6682 7.96693 28.4841 7.82839 29.2868C7.70461 30.0038 7.32787 30.4021 6.74946 30.487C6.19925 30.5679 5.64115 30.269 5.35838 29.664C4.9451 28.78 4.73832 27.8228 4.53489 26.8702C3.85477 23.6876 3.60882 20.4578 3.58471 17.2066C3.57272 15.605 3.55402 14.0021 3.7079 12.4001C3.43915 12.8554 3.32458 13.3622 3.22083 13.8705C2.95442 15.1742 2.91715 16.505 2.78694 17.825C2.74179 18.2825 2.59594 18.6834 2.13429 18.8654C1.48837 19.1201 0.824171 18.7163 0.66532 17.9466C0.479433 17.0454 0.478848 16.1279 0.526489 15.2138C0.604965 13.7119 0.910392 12.2583 1.56304 10.9062C2.74909 8.44893 4.65809 7.06584 7.34059 6.92226C8.51612 6.85944 9.70012 6.82267 10.8638 7.08091C13.2584 7.6126 14.7723 9.19832 15.6833 11.4578C16.4359 13.3241 16.5886 15.2881 16.4582 17.2854C16.4428 17.5227 16.4343 17.7632 16.3878 17.9948C16.2719 18.5723 15.8065 18.957 15.2764 18.9379C14.7281 18.9183 14.3844 18.5677 14.303 17.9211C14.1434 16.6546 14.0835 15.3756 13.8669 14.1163C13.7677 13.5394 13.6499 12.9662 13.3815 12.43Z" fill="#4994FF"/>
<path fill-rule="evenodd" clip-rule="evenodd" d="M8.5297 0.500101C10.0847 0.509141 11.3208 1.7955 11.3196 3.40337C11.3184 5.01923 10.0551 6.31101 8.48425 6.30227C6.94673 6.29369 5.69098 4.98382 5.69288 3.39041C5.69492 1.76943 6.94995 0.49076 8.5297 0.500101Z" fill="#4994FF"/>
</svg>
