<svg width="19" height="31" viewBox="0 0 19 31" fill="none" xmlns="http://www.w3.org/2000/svg">
<path fill-rule="evenodd" clip-rule="evenodd" d="M9.49812 6.31876C7.78796 6.31927 6.40985 4.90596 6.41413 3.15597C6.41832 1.40742 7.8053 -0.00723099 9.50849 2.78101e-05C11.2135 0.00728661 12.5861 1.42807 12.58 3.17938C12.5739 4.91649 11.1978 6.31825 9.49812 6.31876ZM15.7171 11.842C15.8873 12.4305 16.0285 13.0151 16.0835 13.6162C16.3035 16.0189 15.8163 18.1941 14.3735 20.0218L14.3654 20.0898L14.3654 20.0902C14.2972 20.6653 14.2323 21.2132 14.1663 21.7609C14.0128 23.0352 13.8591 24.3095 13.7054 25.5838L13.7053 25.5848C13.5494 26.8768 13.3935 28.1688 13.2379 29.4608C13.1248 30.3996 12.4694 31.0559 11.7022 30.996C10.9243 30.9354 10.332 30.203 10.329 29.2572C10.3241 27.68 10.3247 26.1028 10.3252 24.5256C10.3254 23.8577 10.3257 23.1897 10.3255 22.5218C9.77521 22.6048 9.21829 22.6059 8.66957 22.5259C8.66886 23.2983 8.66905 24.0707 8.66924 24.8431V24.8438C8.66961 26.3212 8.66998 27.7986 8.66402 29.2759C8.66033 30.2067 8.0642 30.9329 7.29557 30.9959C6.5387 31.0579 5.87301 30.4129 5.761 29.4883C5.37936 26.3357 5.00255 23.1822 4.62586 20.0287C3.10049 18.038 2.61933 15.744 2.96364 13.2245C3.01379 12.8575 3.09938 12.4988 3.18531 12.1386C3.20781 12.0444 3.23033 11.95 3.25224 11.8553C3.02971 12.2068 2.87844 12.5918 2.75776 12.9882C2.20936 14.789 2.25171 16.5735 2.9168 18.3368C3.23341 19.1764 2.75915 19.8188 1.88569 19.7286C1.32623 19.6707 0.849483 19.2765 0.742355 18.7476C-0.206251 14.0648 1.72773 10.3723 4.83584 8.25526C5.16091 8.03392 5.50821 7.85378 5.85899 7.67895C5.91235 7.65238 5.95706 7.63667 5.99596 7.63258L6.00002 7.62295C6.00002 7.62295 9.50002 6.09836 13 7.62295L13.0018 7.63399C13.0441 7.63949 13.0924 7.65832 13.1501 7.68805C15.8269 9.06968 17.5503 11.2395 18.2542 14.2329C18.6039 15.7205 18.558 17.2218 18.2583 18.715C18.1068 19.4704 17.2288 19.9461 16.5274 19.669C16.0738 19.4896 15.8482 18.9636 16.0326 18.4641C16.2237 17.9459 16.3912 17.4222 16.4852 16.876C16.7782 15.1731 16.5663 13.5403 15.8362 11.9804C15.832 11.9714 15.8283 11.9619 15.8246 11.9522C15.8076 11.9085 15.7891 11.861 15.7171 11.842Z" fill="#DFDFDF"/>
</svg>
